<svg xmlns:xlink="http://www.w3.org/1999/xlink" xmlns="http://www.w3.org/2000/svg" width="43" height="14"><defs><symbol viewBox="0 0 30 9.54" id="aparat-logo"><path d="M145.71,58.87l-1.15-.36a3.87,3.87,0,0,0,3.68-2.21c-.18,1.48-.43,2.07-1.73,2.57Z" transform="translate(-119.2 -49.33)"></path><path d="M149.2,52.78l-.27.86a9.33,9.33,0,0,0-.7-1.92,9,9,0,0,0-1.36-1.44A2.29,2.29,0,0,1,149.2,52Z" transform="translate(-119.2 -49.33)"></path><path d="M123.74,53.53H120.3a6.25,6.25,0,0,0,0,1.15.66.66,0,0,0,.48.37c1.52,0,3,0,4.58,0,.38,0,.6-.2.53-.56-.17-.87.39-1.28,1-1.71,0,.81,0,1.6,0,2.38a1,1,0,0,1-1,.88c-1.85,0-3.69,0-5.54,0a1,1,0,0,1-1-.78c-.18-.61-.13-1,.36-1.28s.64-.89.59-1.54a13.82,13.82,0,0,1,2.42,0c.42.08.76.59,1.13.91Z" transform="translate(-119.2 -49.33)"></path><path d="M132.19,55.05c.67,0,1.27,0,1.86,0,.14,0,.4-.32.37-.45-.15-.88.36-1.35,1-1.76,0,.81.06,1.63,0,2.44,0,.53-.49.78-1,.79-.74,0-1.49,0-2.24,0a1,1,0,0,1-1-1c0-.88,0-1.76,0-2.64a.6.6,0,0,1,.16-.34c.26-.26.54-.5.89-.83Z" transform="translate(-119.2 -49.33)"></path><path d="M130.71,52.52c0,1.18,0,2.3,0,3.41a1.53,1.53,0,0,1-.86,1.42c-.32.16-.59.19-.77-.21a5.45,5.45,0,0,0-.39-.62c1-.1,1-.78,1-1.52a5,5,0,0,0,0-.55C129.49,53.55,130,53,130.71,52.52Z" transform="translate(-119.2 -49.33)"></path><path d="M137,51.25V56h-1v-.61c0-.84,0-1.69,0-2.53a1.26,1.26,0,0,1,.61-1.29C136.64,51.51,136.76,51.4,137,51.25Z" transform="translate(-119.2 -49.33)"></path><path d="M128.48,56h-1V55c0-.71,0-1.43,0-2.14a1.12,1.12,0,0,1,.55-1.16,5.12,5.12,0,0,0,.5-.43Z" transform="translate(-119.2 -49.33)"></path><path d="M135.4,51.84l-.5-.31c-.55-.35-.61-.61-.12-1.06a1.93,1.93,0,0,1,1-.56,24.58,24.58,0,0,1,2.6,0,7.12,7.12,0,0,1-.9.82,1.56,1.56,0,0,1-.78.16C135.72,50.88,135.69,50.89,135.4,51.84Z" transform="translate(-119.2 -49.33)"></path><path d="M131.32,56.41c1.33.17,2.66-.31,3.94.46l-.84.75c-.41,0-.79-.14-1.17-.15C132.14,57.45,132.14,57.46,131.32,56.41Z" transform="translate(-119.2 -49.33)"></path><path d="M139.88,54.28a3.83,3.83,0,0,0,2.22,3.62C139.87,57.74,139,56.31,139.88,54.28Z" transform="translate(-119.2 -49.33)"></path><path d="M144.16,49.65a3.86,3.86,0,0,0-3.69,2.16C140.58,49.66,142,48.82,144.16,49.65Z" transform="translate(-119.2 -49.33)"></path><path d="M133.84,58.3l-.61-.58,0-.12,1.09.13Z" transform="translate(-119.2 -49.33)"></path><path fill="#fff" d="M147.43,52.77a1.24,1.24,0,1,1-1.24-1.22A1.22,1.22,0,0,1,147.43,52.77Z" transform="translate(-119.2 -49.33)"></path><path fill="#fff" d="M143.17,53.41a1.23,1.23,0,1,1,0-2.46,1.26,1.26,0,0,1,1.24,1.23A1.24,1.24,0,0,1,143.17,53.41Z" transform="translate(-119.2 -49.33)"></path><path fill="#fff" d="M145.53,57.21a1.23,1.23,0,1,1,.07-2.46,1.23,1.23,0,1,1-.07,2.46Z" transform="translate(-119.2 -49.33)"></path><path fill="#fff" d="M142.52,56.61a1.2,1.2,0,0,1-1.24-1.22,1.23,1.23,0,1,1,2.46,0A1.2,1.2,0,0,1,142.52,56.61Z" transform="translate(-119.2 -49.33)"></path><path fill="#e4175f" d="M144.36,49.89a4.18,4.18,0,1,0,4.21,4.21A4.17,4.17,0,0,0,144.36,49.89ZM143.16,51a1.26,1.26,0,0,1,1.24,1.23,1.24,1.24,0,0,1-1.23,1.23,1.23,1.23,0,1,1,0-2.46Zm-.64,5.66a1.2,1.2,0,0,1-1.24-1.22,1.23,1.23,0,1,1,2.46,0A1.2,1.2,0,0,1,142.52,56.61Zm3,.6a1.23,1.23,0,1,1,.07-2.46,1.23,1.23,0,1,1-.07,2.46Zm.67-3.2a1.23,1.23,0,1,1,1.23-1.24A1.21,1.21,0,0,1,146.2,54Z" transform="translate(-119.2 -49.33)"></path><circle fill="#fff" cx="25.15" cy="4.67" r="0.61"></circle></symbol></defs>
            <use xlink:href="#aparat-logo"></use>
        </svg>