<svg xmlns:xlink="http://www.w3.org/1999/xlink" xmlns="http://www.w3.org/2000/svg" width="43.4" height="13"><defs><symbol viewBox="0 0 30 8.36" id="didestan-logo"><path d="M47.49,56.42c-.32.61-.85.55-1.37.54-.74,0-1.49,0-2.23,0a.72.72,0,0,1-.48-.2c-.4-.36-.78-.74-1.15-1.14a.77.77,0,0,1-.2-.48c0-1.17,0-2.34,0-3.51,0-.31.12-.43.43-.41h.73c.29,0,.4.12.4.41,0,.89,0,1.79,0,2.68a1.29,1.29,0,0,0,1.09,1.12c.1,0,.2,0,.31,0a2.11,2.11,0,0,0,2.24-.87c.15-.23.36-.21.55,0l0,.05a2.13,2.13,0,0,0,2,.85c1.87-.07,3.74,0,5.61,0,.53,0,.53,0,.53.53,0,.21,0,.42,0,.62s-.12.4-.41.4l-7.29,0a1.15,1.15,0,0,1-.48-.19A3.37,3.37,0,0,1,47.49,56.42Z" transform="translate(-37.77 -51.2)"></path><path d="M60.2,57H57c-.44,0-.45,0-.45-.47,0-.25,0-.5,0-.75s.09-.33.32-.32c.46,0,.92,0,1.38,0,.21,0,.3-.08.29-.28s0-.24,0-.35A1.69,1.69,0,0,1,59.38,53a.84.84,0,0,1,.57-.11s.12.26.12.41c0,.58,0,1.17,0,1.75,0,.3.11.38.38.37,1,0,2,0,3,0,.33,0,.47.1.43.44a6.26,6.26,0,0,0,0,.75c0,.27-.1.37-.36.37Z" transform="translate(-37.77 -51.2)"></path><path d="M40.16,54.08c.43.41.81.74,1.15,1.11a1.18,1.18,0,0,1,.24.56,3.22,3.22,0,0,1,0,.76c0,.14-.07.41-.11.41a1.19,1.19,0,0,1-.66-.12A6.38,6.38,0,0,1,40,56c-.56-.55-1.11-1.12-1.68-1.67-.19-.19-.23-.33,0-.53l2.44-2.43a.71.71,0,0,1,.38-.18c.38,0,.4,0,.45.39a1.85,1.85,0,0,1-.79,1.93A7.94,7.94,0,0,0,40.16,54.08Z" transform="translate(-37.77 -51.2)"></path><path d="M65.73,54.15c-.42-.43-.78-.79-1.11-1.17a1.1,1.1,0,0,1-.23-.53,4.49,4.49,0,0,1,0-.82c0-.14,0-.37.12-.38a1.34,1.34,0,0,1,.56,0c.08,0,.14.12.2.18l2.31,2.31c.23.22.27.37,0,.62-.8.77-1.57,1.57-2.37,2.35a.76.76,0,0,1-.37.21c-.41.07-.43,0-.48-.42a1.8,1.8,0,0,1,.76-1.87C65.33,54.52,65.5,54.35,65.73,54.15Z" transform="translate(-37.77 -51.2)"></path><path d="M61.56,58.35c.21-.26.35-.44.5-.61a.29.29,0,0,1,.51,0c.2.22.4.41.61.61s.19.3,0,.46-.45.43-.66.66-.29.15-.43,0l-.46-.59-.18,0-.45.56c-.14.18-.28.19-.45,0s-.43-.45-.65-.66a.24.24,0,0,1,0-.41,9.28,9.28,0,0,1,.71-.69.4.4,0,0,1,.37,0A6.16,6.16,0,0,1,61.56,58.35Z" transform="translate(-37.77 -51.2)"></path><path d="M45.84,52.1l.55-.63c.16-.19.31-.21.49,0s.41.43.63.63a.27.27,0,0,1,0,.44c-.22.21-.44.43-.65.66s-.29.17-.43,0l-.59-.68c-.22.28-.37.48-.53.67s-.27.19-.42,0-.43-.44-.66-.65a.27.27,0,0,1,0-.46c.21-.2.41-.4.6-.61s.33-.2.49,0Z" transform="translate(-37.77 -51.2)"></path><path fill="#ec1c24" d="M39.36,52a.8.8,0,1,1-1.59,0,.8.8,0,0,1,.78-.8A.81.81,0,0,1,39.36,52Z" transform="translate(-37.77 -51.2)"></path></symbol></defs>
            <use xlink:href="#didestan-logo"></use>
        </svg>