<svg xmlns:xlink="http://www.w3.org/1999/xlink" xmlns="http://www.w3.org/2000/svg" width="108" height="19"><defs><symbol viewBox="0 0 116.6 20.6" id="header-logo"><path fill="#1A1A1A" d="M34.1,1.6v17.2c0,0.1,0.1,0.1,0.1,0.1h12.3c2.8,0,5-2.3,5-5V6.5c0-2.8-2.3-5-5-5H34.3C34.2,1.5,34.1,1.5,34.1,1.6z M46,14.6h-7.4c-0.1,0-0.1-0.1-0.1-0.1V6c0-0.1,0.1-0.1,0.1-0.1H46c0.7,0,1.3,0.6,1.3,1.3v6.2C47.2,14,46.7,14.6,46,14.6z"></path><path fill="#1A1A1A" d="M62.3,1.6v17.2c0,0.1,0.1,0.1,0.1,0.1h12.4c2.8,0,5-2.3,5-5V6.5c0-2.8-2.3-5-5-5H62.4C62.3,1.5,62.3,1.5,62.3,1.6z M74.1,14.6h-7.4c-0.1,0-0.1-0.1-0.1-0.1V6c0-0.1,0.1-0.1,0.1-0.1h7.4c0.7,0,1.3,0.6,1.3,1.3v6.2C75.4,14,74.8,14.6,74.1,14.6z"></path><path fill="#1A1A1A" d="M99.1,6.5V14c0,2.8,2.3,5,5,5h7.4c2.8,0,5-2.3,5-5V6.5c0-2.8-2.3-5-5-5h-7.4C101.3,1.5,99.1,3.7,99.1,6.5z M111,14.6h-6.2c-0.7,0-1.3-0.6-1.3-1.3V7.1c0-0.7,0.6-1.3,1.3-1.3h6.2c0.7,0,1.3,0.6,1.3,1.3v6.2C112.2,14,111.7,14.6,111,14.6z"></path><path fill="#1A1A1A" d="M96,5.7V1.6c0-0.1-0.1-0.1-0.1-0.1h-8c-2.8,0-5,2.3-5,5V14c0,2.8,2.3,5,5,5h8c0.1,0,0.1-0.1,0.1-0.1v-4.1c0-0.1-0.1-0.1-0.1-0.1h-8.5c-0.1,0-0.1-0.1-0.1-0.1v-1.9c0-0.1,0.1-0.1,0.1-0.1h8.5c0.1,0,0.1-0.1,0.1-0.1V8.2C96,8.1,95.9,8,95.8,8h-8.5c-0.1,0-0.1-0.1-0.1-0.1V6c0-0.1,0.1-0.1,0.1-0.1h8.5C95.9,5.9,96,5.8,96,5.7z"></path><path fill="#1A1A1A" d="M59.2,1.6v4.1c-1.8,0-3.4,1-4.4,2.4V1.6c0-0.1,0.1-0.1,0.1-0.1h4.2C59.1,1.5,59.2,1.6,59.2,1.6z"></path><path fill="#1A1A1A" d="M59.2,6.6V19c0,0.1-0.1,0.1-0.1,0.1h-4.2c-0.1,0-0.1-0.1-0.1-0.1v-8.6C55.1,8.3,57,6.7,59.2,6.6z"></path><path fill="#CC0000" d="M18.5,10.3l-6.2,6.2l2.6,2.6c2,2,5.1,2,7.1,0l2.6-2.6L18.5,10.3z"></path><rect x="20.3" y="5.9" transform="matrix(0.7071 -0.7071 0.7071 0.7071 -4.367720e-02 20.474)" fill="#FF3333" width="8.7" height="8.7"></rect><path fill="#CC0000" d="M15,1.5l-2.6,2.6l6.2,6.2l6.2-6.2l-2.6-2.6C20.1-0.5,16.9-0.5,15,1.5z"></path><path fill="#0099CC" d="M6.2,10.3L0,16.5l2.6,2.6c2,2,5.2,2,7.1,0l2.6-2.6L6.2,10.3z"></path><rect x="8" y="5.9" transform="matrix(0.7071 -0.7071 0.7071 0.7071 -3.6531 11.7635)" fill="#33CCFF" width="8.7" height="8.7"></rect><path fill="#0099CC" d="M2.6,1.5L0,4.1l6.2,6.2l6.2-6.2L9.8,1.5C7.8-0.5,4.6-0.5,2.6,1.5z"></path></symbol></defs>
            <use xlink:href="#header-logo"></use>
        </svg>