<svg xmlns:xlink="http://www.w3.org/1999/xlink" xmlns="http://www.w3.org/2000/svg" width="43" height="15"><defs><symbol viewBox="0 0 30 10.68" id="namasha-logo"> <path fill="#e71e34" d="M100.73,50.53l-.45-.43a1.19,1.19,0,0,1-.15-.18.33.33,0,0,1,.05-.4.32.32,0,0,1,.4-.05l.16.13.84.85c.14.14.17.14.31,0L103.36,49l.09-.09a.34.34,0,0,1,.49,0,.33.33,0,0,1,0,.48l-.81.82c-.12.11-.24.2-.35.31l0,0,.57.1a3.45,3.45,0,0,1,2.8,3.2,23,23,0,0,1,0,2.49,3.48,3.48,0,0,1-2.79,3.06,4.34,4.34,0,0,1-.63.07c-.75,0-1.51,0-2.27,0a3.46,3.46,0,0,1-3.08-2.68,5.54,5.54,0,0,1-.1-1c0-.64,0-1.29,0-1.93a3.48,3.48,0,0,1,2.78-3.2Zm1,7.29h0c.38,0,.77,0,1.16,0a1.79,1.79,0,0,0,1.59-1.51c.06-.76,0-1.53,0-2.3a1.65,1.65,0,0,0,0-.31,1.83,1.83,0,0,0-1.71-1.48c-.72,0-1.43,0-2.14,0a1.83,1.83,0,0,0-1.72,1.65c0,.76,0,1.54,0,2.31a1.84,1.84,0,0,0,1.66,1.64C101,57.84,101.36,57.82,101.75,57.82Z" transform="translate(-76.19 -48.79)"></path> <path d="M95.49,56.48c-.08.32-.15.61-.22.91a1.74,1.74,0,0,0-.07.29c0,.14-.09.17-.21.18a7.19,7.19,0,0,1-2.12-.12.21.21,0,0,0-.16,0,1.38,1.38,0,0,1-1.48.32c-.46-.16-.92-.36-1.37-.54a.2.2,0,0,0-.28.05,2.15,2.15,0,0,1-1.49.61A2.49,2.49,0,0,1,86.92,58a1.53,1.53,0,0,1-1-1.38c-.05-.57,0-1.14-.05-1.71,0-.78,0-1.56,0-2.33a.82.82,0,0,1,0-.22.23.23,0,0,1,.26-.2c.28,0,.55,0,.82,0a.26.26,0,0,1,.3.27,7.85,7.85,0,0,1,0,.84c0,.84,0,1.68,0,2.52a1.74,1.74,0,0,0,.11.56.61.61,0,0,0,.65.42,1.31,1.31,0,0,0,1.12-.64l.74-1.3c.07-.12.14-.24.22-.35a1.48,1.48,0,0,1,1.85-.62,1.94,1.94,0,0,1,1.29,1.64c0,.16,0,.32,0,.48a.48.48,0,0,0,.41.49,3.68,3.68,0,0,0,1.44.07Zm-5-.28a5.55,5.55,0,0,0,1.33.62c.2.06.3,0,.36-.21a1.26,1.26,0,0,0-.82-1.46c-.17,0-.26,0-.34.12S90.69,55.88,90.51,56.2Z" transform="translate(-76.19 -48.79)"></path> <path d="M76.19,52.12h1.23a.16.16,0,0,1,.12.09,1.38,1.38,0,0,1,.09.39c0,.92,0,1.83,0,2.75a6.39,6.39,0,0,0,.11,1,.45.45,0,0,0,.41.35,1.21,1.21,0,0,0,1.22-.41.52.52,0,0,0,.1-.11c.3-.38.47-.41.91-.2l1.69.82c.29.13.38.09.58-.15s.27-.32.41-.47a.34.34,0,0,1,.57,0,.91.91,0,0,0,.69.31h1c-.11.44-.21.87-.33,1.29,0,0-.06.07-.09.07a4,4,0,0,1-1.66-.13.21.21,0,0,0-.15,0,1.41,1.41,0,0,1-1.56.29c-.45-.16-.9-.35-1.34-.52a.17.17,0,0,0-.22,0,1.75,1.75,0,0,1-1.05.58A2.66,2.66,0,0,1,77.35,58a1.63,1.63,0,0,1-1.1-1.6c0-1,0-2,0-3,0-.37,0-.74,0-1.11A.66.66,0,0,1,76.19,52.12Z" transform="translate(-76.19 -48.79)"></path> <path d="M94.75,54.6a1,1,0,0,1-1-1,1,1,0,0,1,1-1,1,1,0,0,1,1,1.05A1,1,0,0,1,94.75,54.6Z" transform="translate(-76.19 -48.79)"></path> <path d="M83.4,53.63a.76.76,0,0,1,.78-.78.79.79,0,1,1-.78.78Z" transform="translate(-76.19 -48.79)"></path> <path d="M79.91,53.62a.76.76,0,0,1,.78-.77.79.79,0,0,1,0,1.57A.76.76,0,0,1,79.91,53.62Z" transform="translate(-76.19 -48.79)"></path> <path d="M82.43,52.85a.76.76,0,0,1,.76.78.77.77,0,0,1-.76.79.79.79,0,1,1,0-1.57Z" transform="translate(-76.19 -48.79)"></path> <path fill="#fff" d="M101.75,57.82c-.39,0-.77,0-1.15,0a1.84,1.84,0,0,1-1.66-1.64c0-.77,0-1.55,0-2.31a1.83,1.83,0,0,1,1.72-1.65c.71,0,1.42,0,2.14,0a1.83,1.83,0,0,1,1.71,1.48,1.65,1.65,0,0,1,0,.31c0,.77,0,1.54,0,2.3a1.79,1.79,0,0,1-1.59,1.51c-.39,0-.78,0-1.16,0ZM100.6,55c0,.4,0,.79,0,1.19s.19.42.46.26l2-1.17c.27-.16.27-.38,0-.54l-2-1.16c-.29-.16-.47-.06-.47.27Z" transform="translate(-76.19 -48.79)"></path> <path fill="#fff" d="M90.51,56.2c.18-.32.35-.63.53-.93s.17-.17.34-.12a1.26,1.26,0,0,1,.82,1.46c-.06.21-.16.27-.36.21A5.55,5.55,0,0,1,90.51,56.2Z" transform="translate(-76.19 -48.79)"></path> <path fill="#e71e34" d="M100.6,55V53.85c0-.33.18-.43.47-.27l2,1.16c.27.16.27.38,0,.54l-2,1.17c-.27.16-.46,0-.46-.26S100.6,55.4,100.6,55Z" transform="translate(-76.19 -48.79)"></path></symbol></defs>
            <use xlink:href="#namasha-logo"></use>
        </svg>