<svg xmlns:xlink="http://www.w3.org/1999/xlink" xmlns="http://www.w3.org/2000/svg" width="33" height="11"><defs><symbol viewBox="0 0 31.28 10.67" id="ted-logo"> <path fill="#ed1c24" d="M21.15,5.29V.3c0-.22,0-.3.29-.3H27a4.16,4.16,0,0,1,4,3.28,7.05,7.05,0,0,1-.09,4.24,4.07,4.07,0,0,1-2.51,2.62,6.68,6.68,0,0,1-2.34.42H21.42c-.24,0-.27,0-.27-.27v-5Zm3.2,0h0V7.65c0,.17,0,.24.24.24h1.3a2,2,0,0,0,1.84-1.33,3.57,3.57,0,0,0,.12-2,2.13,2.13,0,0,0-1.79-1.76,11.53,11.53,0,0,0-1.44,0c-.21,0-.27,0-.27.27a19.23,19.23,0,0,1,.06,2.18Z"></path> <path fill="#ed1c24" d="M10.71,5.28v-5c0-.21,0-.27.26-.27h8.41c.19,0,.26,0,.24.26V2.53c0,.19,0,.25-.25.25H14.25c-.23,0-.29,0-.27.29s0,.49,0,.74.08.27.28.27h5.07c.24,0,.31,0,.29.29v2c0,.19,0,.25-.24.25H14.26c-.22,0-.32,0-.28.29s0,.52,0,.78,0,.26.25.26h5c.38,0,.35,0,.35.34v2.17c0,.16,0,.21-.21.21H10.9c-.2,0-.19-.11-.19-.24Z"></path> <path fill="#ed1c24" d="M4.63,0H8.91c.32,0,.32,0,.32.34V2.5c0,.19,0,.24-.24.24H6.53c-.21,0-.27,0-.27.27V10.3c0,.24,0,.32-.32.31H3.27c-.24,0-.29,0-.29-.29V3c0-.24,0-.3-.29-.3H.29c-.24,0-.3,0-.29-.31V.29C0,.06,0,0,.27,0,1.75,0,3.19,0,4.63,0Z"></path></symbol></defs>
            <use xlink:href="#ted-logo"></use>
        </svg>