<svg xmlns:xlink="http://www.w3.org/1999/xlink" xmlns="http://www.w3.org/2000/svg" width="45" height="13"><defs><symbol viewBox="0 0 44.28 12.55" id="vimeo-logo"> <path fill="#1bb7e9" d="M17.1,12.39a3.49,3.49,0,0,1-1.51-.22,1.56,1.56,0,0,1-1-1.08c0-.16-.09-.13-.18,0a5.38,5.38,0,0,1-2.09,1.25,3.62,3.62,0,0,1-.92.16A1.35,1.35,0,0,1,9.9,11.05a6.51,6.51,0,0,1,.29-1.86c.18-.69.37-1.38.56-2.07a1,1,0,0,0,0-.53.32.32,0,0,0-.48-.18c-.18.1-.33.22-.5.33a.19.19,0,0,0-.08.11A11.11,11.11,0,0,1,8.05,9.61a11.38,11.38,0,0,1-2,2.17,3.13,3.13,0,0,1-1.38.7,1.09,1.09,0,0,1-1-.39,3.72,3.72,0,0,1-.74-1.47c-.27-1-.53-2-.81-2.93a3.84,3.84,0,0,0-.34-.87,1.28,1.28,0,0,0-.26-.35.32.32,0,0,0-.43,0l-.53.34c-.06,0-.1.05-.15,0A4.46,4.46,0,0,0,0,6.32C0,6.25,0,6.21.05,6.15.7,5.6,1.29,5,2,4.48a3.55,3.55,0,0,1,.53-.32A1.08,1.08,0,0,1,4,4.62,3.61,3.61,0,0,1,4.35,5.9a18.12,18.12,0,0,0,.59,2.84,2.19,2.19,0,0,0,.23.49.31.31,0,0,0,.52.07A1.72,1.72,0,0,0,6,8.93,7,7,0,0,0,7,7.31,1.53,1.53,0,0,0,7,6.64a.56.56,0,0,0-.56-.55,2,2,0,0,0-.82.14,3.88,3.88,0,0,1,.4-1A2.47,2.47,0,0,1,8.76,4,1.24,1.24,0,0,1,9.82,5.08a4.28,4.28,0,0,1,.06.44l.25-.21a9.09,9.09,0,0,1,1.22-1,1.39,1.39,0,0,1,1-.26,1.15,1.15,0,0,1,1,1,3.34,3.34,0,0,1-.08,1.26c-.2.94-.36,1.89-.51,2.84a1.22,1.22,0,0,0,0,.57.6.6,0,0,0,.85.41,4.25,4.25,0,0,0,.87-.58c.05,0,.05-.1.06-.16.11-.84.3-1.68.36-2.53a.93.93,0,0,0,0-.29.19.19,0,0,0-.29-.15,3.11,3.11,0,0,0-.54.35c-.09.06-.14.06-.21,0l-.37-.41c-.06-.06-.07-.1,0-.16L15.2,4.56a4.29,4.29,0,0,1,.48-.36.86.86,0,0,1,1.15.13,2,2,0,0,1,.49,1.11,2.66,2.66,0,0,1,0,.63c.07,0,.08-.06.1-.09a4.13,4.13,0,0,1,3.11-1.73,2.13,2.13,0,0,1,.71.08,1.36,1.36,0,0,1,1,1.19,3.28,3.28,0,0,1,0,.64,1.79,1.79,0,0,0,.41-.35,4.61,4.61,0,0,1,1.67-1.3A3,3,0,0,1,26,4.28,1.42,1.42,0,0,1,27.18,5.5a4.52,4.52,0,0,1-.09,1.64c-.13.65-.28,1.3-.41,1.94a2.34,2.34,0,0,0,0,.7c0,.34.36.42.69.37a1.25,1.25,0,0,0,.41-.18.13.13,0,0,0,.06-.15,5.2,5.2,0,0,1,2.32-4.56A5.33,5.33,0,0,1,33.9,4.14a1.83,1.83,0,0,1,1.83,1.31,2,2,0,0,1-.21,1.63,5.46,5.46,0,0,1-2,1.9,7.17,7.17,0,0,1-2.49.9L31,9.9a.75.75,0,0,0,.3.31,1.36,1.36,0,0,0,.75.24,7.69,7.69,0,0,0,2.85-.51l.81-.31c.08,0,.13-.08.12-.18a4.76,4.76,0,0,1,1.59-3.91,5.18,5.18,0,0,1,4-1.53A2.81,2.81,0,0,1,44.21,6.5,5.3,5.3,0,0,1,41.51,12a4.6,4.6,0,0,1-3.54.37A2.76,2.76,0,0,1,36.28,11c-.07-.12-.12-.13-.23-.06a10.17,10.17,0,0,1-3.52,1.41,6.19,6.19,0,0,1-2.71,0,2.48,2.48,0,0,1-1.52-1.11c-.07-.13-.12-.1-.2,0a4.87,4.87,0,0,1-2,1.12,2.87,2.87,0,0,1-1.09.1,1.21,1.21,0,0,1-1.17-1.27,6.92,6.92,0,0,1,.25-2,11.17,11.17,0,0,0,.29-1.51,1.43,1.43,0,0,0-.05-.58.46.46,0,0,0-.66-.33,1.07,1.07,0,0,0-.44.31,6.81,6.81,0,0,0-1.3,2.2,5.09,5.09,0,0,0-.32,2.53,1.89,1.89,0,0,0,.11.47c0,.08,0,.11-.06.11a4.61,4.61,0,0,1-1.52-.2,1.5,1.5,0,0,1-1-1.38,6.07,6.07,0,0,1,.25-2.24,4.34,4.34,0,0,0,.16-1.13.61.61,0,0,0-.32-.66.68.68,0,0,0-.77.18,3.56,3.56,0,0,0-.71,1A6.6,6.6,0,0,0,17,12,2.55,2.55,0,0,0,17.1,12.39ZM41.76,7.31a2.6,2.6,0,0,0-.23-1.13.57.57,0,0,0-.65-.35,1.88,1.88,0,0,0-1.35.74,4.32,4.32,0,0,0-1,2.59,1.92,1.92,0,0,0,.25,1.1.73.73,0,0,0,.71.4,1.6,1.6,0,0,0,1.13-.52A4.19,4.19,0,0,0,41.76,7.31ZM30.63,9a3.91,3.91,0,0,0,.92-.44A4.29,4.29,0,0,0,33,7.24a1.08,1.08,0,0,0,.2-.74.42.42,0,0,0-.45-.41,1.18,1.18,0,0,0-.85.34A4,4,0,0,0,30.8,8,2.34,2.34,0,0,0,30.63,9Z"></path> <path fill="#1bb7e9" d="M12.06,2.75c-.11,0-.23,0-.34,0a1,1,0,0,1-.82-1.35,1.24,1.24,0,0,1,.28-.5A2.42,2.42,0,0,1,12.86,0a1.09,1.09,0,0,1,1.08,1.56A2,2,0,0,1,12.06,2.75Z"></path></symbol></defs>
            <use xlink:href="#vimeo-logo"></use>
        </svg>